ffmpeg started on 2016-12-06 at 11:03:30
Report written to "Output/x264/results/ffmpeg/crowd_run_2160p50fast12000k.log"
Command line:
Tools/ffmpeg/ffmpeg -benchmark -y -i Input/y4m/crowd_run_2160p50.y4m -c:v libx264 -preset fast -b:v 12000k -an Output/x264/encoded/crowd_run_2160p50fast12000k.mkv
ffmpeg version N-82227-gdb23fde Copyright (c) 2000-2016 the FFmpeg developers
  built with gcc 5.4.0 (Ubuntu 5.4.0-6ubuntu1~16.04.2) 20160609
  configuration: --prefix=/home/jaroslav/ffmpeg_build --pkg-config-flags=--static --extra-cflags=-I/home/jaroslav/ffmpeg_build/include --extra-ldflags=-L/home/jaroslav/ffmpeg_build/lib --bindir=/home/jaroslav/bin --enable-gpl --enable-libass --enable-libfdk-aac --enable-libfreetype --enable-libmp3lame --enable-libopus --enable-libtheora --enable-libvorbis --enable-libvpx --enable-libx264 --enable-libx265 --enable-nvenc --enable-libmfx --enable-libxvid --enable-libgsm --enable-libopencore-amrnb --enable-version3 --enable-nonfree
  libavutil      55. 35.100 / 55. 35.100
  libavcodec     57. 66.101 / 57. 66.101
  libavformat    57. 57.100 / 57. 57.100
  libavdevice    57.  2.100 / 57.  2.100
  libavfilter     6. 66.100 /  6. 66.100
  libswscale      4.  3.100 /  4.  3.100
  libswresample   2.  4.100 /  2.  4.100
  libpostproc    54.  2.100 / 54.  2.100
Input #0, yuv4mpegpipe, from 'Input/y4m/crowd_run_2160p50.y4m':
  Duration: 00:00:10.00, start: 0.000000, bitrate: 4976642 kb/s
    Stream #0:0: Video: rawvideo (I420 / 0x30323449), yuv420p(progressive), 3840x2160, SAR 1:1 DAR 16:9, 50 fps, 50 tbr, 50 tbn, 50 tbc
[libx264 @ 0x390b1c0] using SAR=1/1
[libx264 @ 0x390b1c0] using cpu capabilities: MMX2 SSE2Fast SSSE3 SSE4.2 AVX FMA3 AVX2 LZCNT BMI2
[libx264 @ 0x390b1c0] profile High, level 5.2
[libx264 @ 0x390b1c0] 264 - core 148 - H.264/MPEG-4 AVC codec - Copyleft 2003-2016 - http://www.videolan.org/x264.html - options: cabac=1 ref=2 deblock=1:0:0 analyse=0x3:0x113 me=hex subme=6 psy=1 psy_rd=1.00:0.00 mixed_ref=1 me_range=16 chroma_me=1 trellis=1 8x8dct=1 cqm=0 deadzone=21,11 fast_pskip=1 chroma_qp_offset=-2 threads=6 lookahead_threads=1 sliced_threads=0 nr=0 decimate=1 interlaced=0 bluray_compat=0 constrained_intra=0 bframes=3 b_pyramid=2 b_adapt=1 b_bias=0 direct=1 weightb=1 open_gop=0 weightp=1 keyint=250 keyint_min=25 scenecut=40 intra_refresh=0 rc_lookahead=30 rc=abr mbtree=1 bitrate=12000 ratetol=1.0 qcomp=0.60 qpmin=0 qpmax=69 qpstep=4 ip_ratio=1.40 aq=1:1.00
Output #0, matroska, to 'Output/x264/encoded/crowd_run_2160p50fast12000k.mkv':
  Metadata:
    encoder         : Lavf57.57.100
    Stream #0:0: Video: h264 (libx264) (H264 / 0x34363248), yuv420p, 3840x2160 [SAR 1:1 DAR 16:9], q=-1--1, 12000 kb/s, 50 fps, 1k tbn, 50 tbc
    Metadata:
      encoder         : Lavc57.66.101 libx264
    Side data:
      cpb: bitrate max/min/avg: 0/0/12000000 buffer size: 0 vbv_delay: -1
Stream mapping:
  Stream #0:0 -> #0:0 (rawvideo (native) -> h264 (libx264))
Press [q] to stop, [?] for help
frame=   19 fps=0.0 q=0.0 size=       0kB time=00:00:00.00 bitrate=N/A speed=   0x    frame=   33 fps= 32 q=0.0 size=       0kB time=00:00:00.00 bitrate=N/A speed=   0x    frame=   37 fps= 14 q=0.0 size=       0kB time=00:00:00.00 bitrate=N/A speed=   0x    frame=   43 fps= 13 q=33.0 size=       1kB time=00:00:00.00 bitrate=5872.0kbits/s speed=0.000292x    frame=   47 fps= 12 q=36.0 size=       1kB time=00:00:00.08 bitrate=  72.5kbits/s speed=0.0204x    frame=   50 fps= 10 q=46.0 size=       1kB time=00:00:00.14 bitrate=  41.6kbits/s speed=0.0295x    frame=   51 fps=9.7 q=44.0 size=       1kB time=00:00:00.16 bitrate=  36.5kbits/s speed=0.0305x    frame=   52 fps=8.9 q=48.0 size=       1kB time=00:00:00.18 bitrate=  32.4kbits/s speed=0.0311x    frame=   54 fps=8.5 q=49.0 size=       1kB time=00:00:00.22 bitrate=  26.6kbits/s speed=0.0349x    frame=   57 fps=8.0 q=48.0 size=       1kB time=00:00:00.28 bitrate=  20.9kbits/s speed=0.0394x    frame=   64 fps=8.1 q=48.0 size=       1kB time=00:00:00.42 bitrate=  13.9kbits/s speed=0.0532x    frame=   66 fps=7.6 q=48.0 size=       1kB time=00:00:00.46 bitrate=  12.7kbits/s speed=0.0532x    frame=   73 fps=7.8 q=48.0 size=       1kB time=00:00:00.60 bitrate=   9.8kbits/s speed=0.0639x    frame=   77 fps=7.5 q=48.0 size=       1kB time=00:00:00.68 bitrate=   8.6kbits/s speed=0.0666x    frame=   82 fps=7.4 q=48.0 size=       1kB time=00:00:00.78 bitrate=   7.5kbits/s speed=0.0706x    frame=   84 fps=7.1 q=47.0 size=       1kB time=00:00:00.82 bitrate=   7.2kbits/s speed=0.0694x    frame=   86 fps=6.9 q=47.0 size=       1kB time=00:00:00.86 bitrate=   6.8kbits/s speed=0.0692x    frame=   92 fps=7.1 q=47.0 size=       1kB time=00:00:00.98 bitrate=   6.0kbits/s speed=0.0758x    frame=  100 fps=7.4 q=47.0 size=       1kB time=00:00:01.14 bitrate=   5.1kbits/s speed=0.0849x    frame=  105 fps=7.3 q=47.0 size=       1kB time=00:00:01.24 bitrate=   4.7kbits/s speed=0.0867x    frame=  109 fps=7.3 q=47.0 size=       1kB time=00:00:01.32 bitrate=   4.4kbits/s speed=0.0885x    frame=  115 fps=7.4 q=46.0 size=       1kB time=00:00:01.44 bitrate=   4.1kbits/s speed=0.0926x    frame=  119 fps=7.4 q=46.0 size=       1kB time=00:00:01.52 bitrate=   3.9kbits/s speed=0.0946x    frame=  121 fps=7.3 q=46.0 size=       1kB time=00:00:01.56 bitrate=   3.8kbits/s speed=0.094x    frame=  122 fps=7.1 q=46.0 size=       1kB time=00:00:01.58 bitrate=   3.7kbits/s speed=0.0919x    frame=  129 fps=7.3 q=46.0 size=       1kB time=00:00:01.72 bitrate=   3.4kbits/s speed=0.0972x    frame=  136 fps=7.4 q=46.0 size=       1kB time=00:00:01.86 bitrate=   3.2kbits/s speed=0.102x    frame=  144 fps=7.6 q=46.0 size=       1kB time=00:00:02.02 bitrate=   2.9kbits/s speed=0.107x    frame=  152 fps=7.8 q=46.0 size=       1kB time=00:00:02.18 bitrate=   2.7kbits/s speed=0.112x    frame=  159 fps=7.9 q=46.0 size=       1kB time=00:00:02.32 bitrate=   2.5kbits/s speed=0.116x    frame=  167 fps=8.1 q=46.0 size=       1kB time=00:00:02.48 bitrate=   2.4kbits/s speed=0.12x    frame=  174 fps=8.2 q=45.0 size=       1kB time=00:00:02.62 bitrate=   2.2kbits/s speed=0.124x    frame=  180 fps=8.3 q=45.0 size=       1kB time=00:00:02.74 bitrate=   2.1kbits/s speed=0.126x    frame=  186 fps=8.3 q=45.0 size=       1kB time=00:00:02.86 bitrate=   2.1kbits/s speed=0.128x    frame=  192 fps=8.4 q=45.0 size=       1kB time=00:00:02.98 bitrate=   2.0kbits/s speed=0.13x    frame=  200 fps=8.5 q=45.0 size=       1kB time=00:00:03.14 bitrate=   1.9kbits/s speed=0.133x    frame=  207 fps=8.6 q=45.0 size=    5125kB time=00:00:03.28 bitrate=12797.0kbits/s speed=0.136x    frame=  215 fps=8.7 q=45.0 size=    5125kB time=00:00:03.44 bitrate=12201.9kbits/s speed=0.139x    frame=  221 fps=8.8 q=45.0 size=    5125kB time=00:00:03.56 bitrate=11790.7kbits/s speed=0.141x    frame=  228 fps=8.9 q=45.0 size=    5125kB time=00:00:03.70 bitrate=11344.7kbits/s speed=0.144x    frame=  235 fps=8.9 q=45.0 size=    5125kB time=00:00:03.84 bitrate=10931.2kbits/s speed=0.146x    frame=  243 fps=9.0 q=45.0 size=    5125kB time=00:00:04.00 bitrate=10494.1kbits/s speed=0.148x    frame=  251 fps=9.1 q=45.0 size=    5125kB time=00:00:04.16 bitrate=10090.6kbits/s speed=0.15x    frame=  259 fps=9.2 q=45.0 size=    5125kB time=00:00:04.32 bitrate=9716.9kbits/s speed=0.153x    frame=  266 fps=9.2 q=45.0 size=    5125kB time=00:00:04.46 bitrate=9412.0kbits/s speed=0.155x    frame=  272 fps=9.3 q=45.0 size=    5125kB time=00:00:04.58 bitrate=9165.4kbits/s speed=0.156x    frame=  278 fps=9.3 q=45.0 size=    5125kB time=00:00:04.70 bitrate=8931.5kbits/s speed=0.157x    frame=  284 fps=9.3 q=45.0 size=    5125kB time=00:00:04.82 bitrate=8709.2kbits/s speed=0.158x    frame=  286 fps=9.2 q=42.0 size=    5125kB time=00:00:04.86 bitrate=8637.5kbits/s speed=0.156x    frame=  294 fps=9.3 q=45.0 size=    7596kB time=00:00:05.02 bitrate=12392.9kbits/s speed=0.158x    frame=  299 fps=9.3 q=45.0 size=    7596kB time=00:00:05.12 bitrate=12150.9kbits/s speed=0.159x    frame=  306 fps=9.3 q=45.0 size=    7596kB time=00:00:05.26 bitrate=11827.5kbits/s speed=0.16x    frame=  313 fps=9.4 q=45.0 size=    7596kB time=00:00:05.40 bitrate=11520.9kbits/s speed=0.161x    frame=  321 fps=9.4 q=45.0 size=    7596kB time=00:00:05.56 bitrate=11189.5kbits/s speed=0.163x    frame=  328 fps=9.5 q=45.0 size=    7596kB time=00:00:05.70 bitrate=10914.7kbits/s speed=0.165x    frame=  333 fps=9.5 q=45.0 size=    7596kB time=00:00:05.80 bitrate=10726.5kbits/s speed=0.166x    frame=  339 fps=9.5 q=45.0 size=    7596kB time=00:00:05.92 bitrate=10509.1kbits/s speed=0.165x    frame=  346 fps=9.5 q=45.0 size=    7596kB time=00:00:06.06 bitrate=10266.4kbits/s speed=0.167x    frame=  354 fps=9.6 q=45.0 size=    7596kB time=00:00:06.22 bitrate=10002.4kbits/s speed=0.168x    frame=  361 fps=9.6 q=45.0 size=    7596kB time=00:00:06.36 bitrate=9782.2kbits/s speed=0.17x    frame=  367 fps=9.7 q=45.0 size=    7596kB time=00:00:06.48 bitrate=9601.1kbits/s speed=0.17x    frame=  374 fps=9.7 q=45.0 size=    7596kB time=00:00:06.62 bitrate=9398.1kbits/s speed=0.172x    frame=  380 fps=9.7 q=45.0 size=    7596kB time=00:00:06.74 bitrate=9230.8kbits/s speed=0.172x    frame=  386 fps=9.7 q=45.0 size=    7596kB time=00:00:06.86 bitrate=9069.3kbits/s speed=0.173x    frame=  393 fps=9.8 q=45.0 size=    7596kB time=00:00:07.00 bitrate=8888.0kbits/s speed=0.174x    frame=  399 fps=9.8 q=45.0 size=    7596kB time=00:00:07.12 bitrate=8738.2kbits/s speed=0.175x    frame=  406 fps=9.8 q=45.0 size=    7596kB time=00:00:07.26 bitrate=8569.7kbits/s speed=0.176x    frame=  413 fps=9.8 q=45.0 size=    7596kB time=00:00:07.40 bitrate=8407.6kbits/s speed=0.176x    frame=  421 fps=9.9 q=45.0 size=    7596kB time=00:00:07.56 bitrate=8229.7kbits/s speed=0.178x    frame=  427 fps=9.9 q=45.0 size=    7596kB time=00:00:07.68 bitrate=8101.1kbits/s speed=0.178x    frame=  434 fps=9.9 q=45.0 size=    7596kB time=00:00:07.82 bitrate=7956.1kbits/s speed=0.179x    frame=  441 fps= 10 q=45.0 size=    7596kB time=00:00:07.96 bitrate=7816.2kbits/s speed=0.18x    frame=  449 fps= 10 q=45.0 size=    7596kB time=00:00:08.12 bitrate=7662.2kbits/s speed=0.181x    frame=  456 fps= 10 q=45.0 size=    7596kB time=00:00:08.26 bitrate=7532.3kbits/s speed=0.182x    frame=  462 fps= 10 q=45.0 size=    7596kB time=00:00:08.38 bitrate=7424.5kbits/s speed=0.182x    frame=  469 fps= 10 q=45.0 size=   12727kB time=00:00:08.52 bitrate=12235.2kbits/s speed=0.183x    frame=  477 fps= 10 q=45.0 size=   12727kB time=00:00:08.68 bitrate=12009.7kbits/s speed=0.184x    frame=  485 fps= 10 q=45.0 size=   12727kB time=00:00:08.84 bitrate=11792.4kbits/s speed=0.185x    frame=  492 fps= 10 q=45.0 size=   12727kB time=00:00:08.98 bitrate=11608.6kbits/s speed=0.186x    frame=  499 fps= 10 q=45.0 size=   12727kB time=00:00:09.12 bitrate=11430.4kbits/s speed=0.186x    frame=  500 fps=9.7 q=-1.0 Lsize=   14815kB time=00:00:09.94 bitrate=12208.2kbits/s speed=0.193x    
video:14810kB audio:0kB subtitle:0kB other streams:0kB global headers:0kB muxing overhead: 0.030866%
bench: utime=153.388s
bench: maxrss=1592384kB
[libx264 @ 0x390b1c0] frame I:2     Avg QP:34.18  size:413548
[libx264 @ 0x390b1c0] frame P:126   Avg QP:43.88  size: 53116
[libx264 @ 0x390b1c0] frame B:372   Avg QP:46.59  size: 20551
[libx264 @ 0x390b1c0] consecutive B-frames:  0.8%  0.0%  0.0% 99.2%
[libx264 @ 0x390b1c0] mb I  I16..4: 14.8% 72.5% 12.8%
[libx264 @ 0x390b1c0] mb P  I16..4:  2.4%  6.6%  0.1%  P16..4: 31.4%  5.3%  2.5%  0.0%  0.0%    skip:51.8%
[libx264 @ 0x390b1c0] mb B  I16..4:  1.5%  2.3%  0.0%  B16..8: 16.9%  1.6%  0.0%  direct: 7.2%  skip:70.5%  L0:42.8% L1:55.7% BI: 1.5%
[libx264 @ 0x390b1c0] final ratefactor: 36.90
[libx264 @ 0x390b1c0] 8x8 transform intra:66.3% inter:89.7%
[libx264 @ 0x390b1c0] coded y,uvDC,uvAC intra: 23.2% 53.6% 16.5% inter: 4.2% 7.3% 0.1%
[libx264 @ 0x390b1c0] i16 v,h,dc,p: 46% 22% 13% 19%
[libx264 @ 0x390b1c0] i8 v,h,dc,ddl,ddr,vr,hd,vl,hu: 17% 10% 37%  6%  6%  7%  6%  7%  5%
[libx264 @ 0x390b1c0] i4 v,h,dc,ddl,ddr,vr,hd,vl,hu: 21% 16% 14%  9%  9%  9%  8%  7%  7%
[libx264 @ 0x390b1c0] i8c dc,h,v,p: 78%  7% 13%  2%
[libx264 @ 0x390b1c0] Weighted P-Frames: Y:1.6% UV:0.0%
[libx264 @ 0x390b1c0] ref P L0: 72.5% 27.5%
[libx264 @ 0x390b1c0] ref B L0: 90.1%  9.9%
[libx264 @ 0x390b1c0] ref B L1: 98.0%  2.0%
[libx264 @ 0x390b1c0] kb/s:12131.88
